<svg id="Calque_1" data-name="Calque 1" xmlns="http://www.w3.org/2000/svg" xmlns:xlink="http://www.w3.org/1999/xlink" viewBox="0 0 500 450"><defs><style>.cls-1,.cls-12,.cls-6{fill:none;}.cls-2{clip-path:url(#clip-path);}.cls-3,.cls-5{fill:#fff;}.cls-4{fill:#002060;}.cls-11,.cls-4,.cls-6{stroke:#44546a;}.cls-11,.cls-12,.cls-4,.cls-6{stroke-linejoin:round;}.cls-5,.cls-7,.cls-9{isolation:isolate;}.cls-5,.cls-7{font-size:11.42px;font-family:ArialMT, Arial;}.cls-12,.cls-6{stroke-width:2px;}.cls-8{fill:#98d632;}.cls-11,.cls-8{fill-rule:evenodd;}.cls-10{fill:#44546a;}.cls-11{fill:#e7e6e6;}.cls-12{stroke:#002060;}</style><clipPath id="clip-path" transform="translate(0 0)"><rect class="cls-1" x="-212.76" y="-22.71" width="913.78" height="514"/></clipPath></defs><g class="cls-2"><rect class="cls-3" width="500" height="450"/><rect class="cls-4" x="184.51" y="86.87" width="86.38" height="34.27"/><text class="cls-5" transform="translate(213.86 107.93)">Splits</text><rect class="cls-4" x="163.81" y="183.96" width="127.07" height="38.55"/><text class="cls-5" transform="translate(183.42 207.88)">Machine Learning</text><rect class="cls-4" x="184.51" y="296.75" width="86.38" height="33.55"/><text class="cls-5" transform="translate(209.35 317.81)">Results</text><path class="cls-6" d="M113.48,47.37a4.4,4.4,0,0,1,4.4-4.4h77.58a4.4,4.4,0,0,1,4.4,4.4V65a4.4,4.4,0,0,1-4.4,4.4H117.88a4.4,4.4,0,0,1-4.4-4.4Z" transform="translate(0 0)"/><text class="cls-7" transform="translate(128.74 60.81)">Parameters</text><path class="cls-6" d="M89.21,147.31a3.69,3.69,0,0,1,3.69-3.69h79a3.69,3.69,0,0,1,3.69,3.69v14.76a3.69,3.69,0,0,1-3.69,3.68h-79a3.69,3.69,0,0,1-3.69-3.68Z" transform="translate(0 0)"/><text class="cls-7" transform="translate(104.2 159.32)">Parameters</text><path class="cls-8" d="M262.69,28.33a6.78,6.78,0,0,1,6.78-6.78h76.38a6.79,6.79,0,0,1,6.79,6.78V55.46a6.79,6.79,0,0,1-6.79,6.78H269.47a6.78,6.78,0,0,1-6.78-6.78Z" transform="translate(0 0)"/><g class="cls-9"><text class="cls-7" transform="translate(289.75 39.39)">Data +</text><text class="cls-7" transform="translate(284.37 52.96)">Metadata</text></g><path class="cls-10" d="M227.7,121.14v58.53H227V121.14Zm2.5,57.58-2.85,5.71-2.86-5.71Z" transform="translate(0 0)"/><path class="cls-10" d="M227.7,222.51v69.08H227V222.51Zm2.5,68.13-2.85,5.71-2.86-5.71Z" transform="translate(0 0)"/><path class="cls-11" d="M290.88,135.41a6.43,6.43,0,0,1,6.43-6.42h94.23a6.43,6.43,0,0,1,6.43,6.42v25.7a6.43,6.43,0,0,1-6.43,6.43H297.31a6.43,6.43,0,0,1-6.43-6.43Z" transform="translate(0 0)"/><g class="cls-9"><text class="cls-7" transform="translate(312.95 145.76)">Save </text><text class="cls-7" transform="translate(340.21 145.76)">splits</text><text class="cls-7" transform="translate(368.05 145.76)">&amp; </text><text class="cls-7" transform="translate(326.15 159.32)">classes</text></g><path class="cls-11" d="M283,248.92a6.42,6.42,0,0,1,6.43-6.42h82.09a6.42,6.42,0,0,1,6.43,6.42v25.7a6.43,6.43,0,0,1-6.43,6.43H289.46a6.43,6.43,0,0,1-6.43-6.43Z" transform="translate(0 0)"/><g class="cls-9"><text class="cls-7" transform="translate(300.56 266.42)">Save </text><text class="cls-7" transform="translate(327.79 266.42)">results</text></g><path class="cls-10" d="M308.58,62.62l-.23,3.88-.63,3.87-1,3.83-1.4,3.74-1.71,3.59-2,3.47-2.24,3.23-2.57,3.06-2.74,2.79-2.92,2.56L288,98.85l-3.24,1.89-3.38,1.54L278,103.41l-3.19.65-.14-.7,3.1-.63,3.36-1.1,3.31-1.51,3.19-1.85,3.09-2.16,2.88-2.53,2.71-2.75,2.52-3L301,84.64l2-3.41,1.68-3.54L306,74l1-3.76.62-3.8.22-3.88Zm-33.89,41.09,2.11,2.71L270.89,104l5.49-3.27Z" transform="translate(0 0)"/><path class="cls-10" d="M157,69.75l.13,3.21.5,3.26.72,3.14,1,3.11,2.74,5.85a.08.08,0,0,0,0,0l3.44,5.18,0,0L169.75,98,172,99.86l2.39,1.59,2.44,1.26,2.54,1,1.27.3.17-.7-1.19-.27-2.46-.92-2.37-1.23-2.34-1.54-2.2-1.8-4.15-4.42,0,0L162.73,88l0,0-2.7-5.76-1-3-.71-3.09-.48-3.18-.14-3.21Zm23.71,33.87-2.22,2.61,6-2.16-5.34-3.51Z" transform="translate(0 0)"/><path class="cls-10" d="M270.9,103.65l6.92.13,6.93.45,13.4,1.6,6.4,1.12,6.13,1.34,5.82,1.57,5.41,1.7,5,1.83,4.53,2,3.95,2.06,3.38,2.21,2.75,2.3s0,0,0,0l2,2.27a.56.56,0,0,1,.05.08l.53,1-.64.32-.53-1,.05.07-2-2.27,0,0-2.68-2.25-3.32-2.17-3.91-2-4.48-2-5-1.83-5.39-1.69L310.53,109l-6.1-1.33-6.36-1.12-13.37-1.6-6.9-.45-6.91-.13Zm72.94,21.92,2.19-2.64-1.1,6.29-4.37-4.66Z" transform="translate(0 0)"/><path class="cls-10" d="M344.71,167.57l-.31,3.35a.13.13,0,0,1,0,.06l-.89,3.3,0,.05-1.43,3.26-2,3.25L337.63,184l-2.88,3-3.28,2.83-3.64,2.61-3.94,2.42L319.71,197l-4.43,1.93-4.67,1.61-4.8,1.3-4.93,1-5,.58-1.2,0,0-.71,1.15,0,4.92-.58,4.89-1,4.75-1.28,4.61-1.6,4.4-1.91,4.12-2.13,3.91-2.39,3.59-2.57,3.23-2.79,2.83-2.91,2.39-3.05,1.94-3.17,1.43-3.26,0,.05.89-3.3v.06l.31-3.34Zm-50,35.49,2,2.78-5.82-2.64,5.6-3.07Z" transform="translate(0 0)"/><path class="cls-10" d="M290.91,202.88l3.7.22,3.7.67,3.65,1,3.52,1.44,3.46,1.8,3.29,2.11,3.1,2.38,2.88,2.66,2.7,2.92,2.38,3,2.12,3.29,1.8,3.41,1.44,3.52,1.08,3.6.65,3.54-.7.12-.63-3.46L328,231.66l-1.42-3.45-1.76-3.37-2.08-3.23-2.35-3-2.65-2.88-2.84-2.61-3.05-2.35-3.23-2.08-3.41-1.77-3.44-1.41-3.58-1-3.61-.67-3.71-.22ZM330,238.59l2.72-2.09-2.47,5.89-3.22-5.51Z" transform="translate(0 0)"/><path class="cls-10" d="M331.21,281.09l-.36,3a.14.14,0,0,1,0,.07l-1,3a.14.14,0,0,1,0,.06l-1.61,2.95,0,0-2.23,2.9-2.71,2.8-3.24,2.7-3.68,2.57-4,2.37-4.39,2.16-4.71,2-5,1.75L293,310.93l-5.33,1.16-5.51.9-5.6.54-1.83,0,0-.71,1.78,0,5.56-.54,5.47-.88,5.28-1.16,5.16-1.47,5-1.73,4.66-2,4.35-2.13,4-2.35,3.64-2.53,3.18-2.65,2.65-2.73,2.23-2.9,0,0,1.61-2.94,0,.06,1-3,0,.07.36-3ZM274.7,313.22l2,2.8-5.78-2.71,5.64-3Z" transform="translate(0 0)"/><path class="cls-10" d="M132,166.13l.18,3.48.54,3.52.86,3.46,1.12,3.38,1.44,3.24,1.66,3.1,4,5.71,2.31,2.53,2.47,2.3,2.57,2,2.75,1.72,2.8,1.4,2.9,1,2,.43.15-.69-1.93-.42-2.81-1-2.74-1.37-2.69-1.67-2.52-2-2.43-2.25-2.25-2.46L138.47,186l-1.64-3.06-1.41-3.18-1.11-3.32-.84-3.4-.53-3.45-.18-3.48ZM159.72,203l-2.18,2.65,6-2.26-5.4-3.42Z" transform="translate(0 0)"/><path class="cls-10" d="M61.36,213.39l.23,1.6,0-.07.58,1.61,0-.08,1,1.56,1.27,1.48,0,0,1.69,1.47,1.9,1.41,2.2,1.32,2.44,1.24,5.5,2.17,6.16,1.68,6.57,1.06,6.79.4,6.79-.31,6.57-.85,6.13-1.37,5.5-1.74,4.65-2.08,1.93-1.1,1.62-1.14,1.3-1.22,0,0,1-1.25-.05.07.58-1.25,0,.09.22-1.29.18-1.28a.19.19,0,0,1,0-.08l.49-1.25,0-.07.8-1.24,0,0,1.12-1.21,0,0,2.94-2.32.05,0,3.84-2.05,4.59-1.81L153,204l5.48-.85,1.81-.1,0,.71-1.73.09-5.41.84-5,1.33-4.51,1.77-3.84,2.05,0,0L137,212.15l0,0-1.12,1.2,0,0-.8,1.25,0-.06-.49,1.25,0-.08-.18,1.3-.22,1.3,0,.08-.58,1.25a.16.16,0,0,1,0,.07l-1,1.25s0,0,0,0l-1.38,1.28-1.68,1.18-2,1.13-4.72,2.12-5.57,1.74-6.19,1.39-6.63.85-6.86.31-6.87-.4-6.64-1.08-6.24-1.71-5.56-2.2-2.47-1.26-2.26-1.36-1.94-1.44L63.9,220s0,0,0,0l-1.32-1.56-1-1.56a.16.16,0,0,1,0-.07l-.58-1.61a.19.19,0,0,1,0-.07l-.22-1.61Zm99-9.95-2.05-2.75,5.86,2.54-5.55,3.16Z" transform="translate(0 0)"/><path class="cls-10" d="M141.32,238l.5-6.47,1.39-6.34,2.2-5.93,2.83-5.31,0-.05,3.34-4.46,1.86-1.91,1.95-1.59,2-1.27,2.05-1,.39-.12.21.68-.3.09-2,.91-1.93,1.23L154,208l-1.8,1.84-3.34,4.46,0-.05-2.79,5.23-2.18,5.84-1.37,6.24L142,238ZM160,203.91l-2.38-2.48,6.13,1.8-5.11,3.82Z" transform="translate(0 0)"/><path class="cls-11" d="M390.83,249.64a6.43,6.43,0,0,1,6.42-6.43h82.1a6.43,6.43,0,0,1,6.43,6.43v25.7a6.43,6.43,0,0,1-6.43,6.42h-82.1a6.43,6.43,0,0,1-6.42-6.42Z" transform="translate(0 0)"/><g class="cls-9"><text class="cls-7" transform="translate(425.66 259.27)">Save </text><text class="cls-7" transform="translate(409.87 272.83)">parameters</text></g><path class="cls-10" d="M290.89,202.88l13.74.22,13.67.67,13.48,1.07,13.13,1.43,12.68,1.79,12.15,2.09,11.52,2.42L392,215.2l9.87,2.91,4.61,1.52,4.34,1.56,4.07,1.61,3.8,1.66,3.5,1.7,3.18,1.7,2.87,1.8,2.52,1.75,2.2,1.8,1.82,1.85,1.45,1.86,0,.05,1,1.79-.62.35-1-1.79,0,0-1.4-1.8-1.76-1.8L430.38,232l-2.48-1.73-2.84-1.77-3.16-1.69-3.46-1.69-3.78-1.65-4.05-1.6-4.32-1.56-4.59-1.51-9.84-2.9-10.74-2.63-11.5-2.4-12.13-2.1L344.83,207l-13.1-1.43-13.47-1.07-13.64-.67-13.74-.22ZM437,238.94l2.35-2.5-1.49,6.21-4.07-4.92Z" transform="translate(0 0)"/><path class="cls-6" d="M98.49,244.64a6.78,6.78,0,0,1,6.78-6.78h72.82a6.77,6.77,0,0,1,6.78,6.78v27.13a6.78,6.78,0,0,1-6.78,6.78H105.27a6.79,6.79,0,0,1-6.78-6.78Z" transform="translate(0 0)"/><g class="cls-9"><text class="cls-7" transform="translate(127.34 255.71)">Other</text><text class="cls-7" transform="translate(115.99 269.27)">algorithms</text></g><path class="cls-12" d="M17.11,179.68a6.78,6.78,0,0,1,6.78-6.79H96.71a6.79,6.79,0,0,1,6.78,6.79V206.8a6.78,6.78,0,0,1-6.78,6.78H23.89a6.77,6.77,0,0,1-6.78-6.78Z" transform="translate(0 0)"/><g class="cls-9"><text class="cls-7" transform="translate(33.02 190.74)">Scikit</text><text class="cls-7" transform="translate(59.52 190.74)">-</text><text class="cls-7" transform="translate(63.32 190.74)">learn</text><text class="cls-7" transform="translate(34.91 204.31)">algorithms</text></g><rect class="cls-4" x="184.51" y="387.42" width="86.38" height="43.55"/><g class="cls-9"><text class="cls-5" transform="translate(209.35 406.33)">Results</text><text class="cls-5" transform="translate(199.01 419.9)">aggregated</text></g><path class="cls-10" d="M227.7,330.31v52.13H227V330.31Zm2.5,51.18-2.85,5.71-2.86-5.71Z" transform="translate(0 0)"/><path class="cls-10" d="M331.21,281.06l-.36,12-1,11.93-1.61,11.71L326,328.05l-2.68,11-3.22,10.59-3.67,10-4,9.39-4.38,8.63-4.7,7.74-5,6.85-2.56,3.06-2.65,2.78-2.65,2.47-2.69,2.2L285,404.75l-2.75,1.58-2.85,1.23-2.79.94-1.87.36-.13-.7,1.77-.33,2.74-.93,2.78-1.19,2.69-1.54,2.75-1.9,2.66-2.18,2.61-2.43,2.62-2.75,2.53-3,5-6.8,4.67-7.7,4.36-8.59,4-9.35,3.65-10,3.21-10.56,2.68-11,2.22-11.36,1.61-11.67,1-11.9.35-11.95ZM274.69,408.51l2.14,2.68-5.94-2.35,5.45-3.34Z" transform="translate(0 0)"/></g></svg>